# xmcd
#
# Track frame offsets:
# 150
# 13082
# 30030
# 38513
# 43568
# 55877
# 70485
# 85307
# 95477
# 106765
# 116463
# 122907
# 132693
# 156029
#
# Disc length: 2349 seconds
#
#
# Revision: 0
# Processed by: cddbd v1.5.2PL0 Copyright (c) Steve Scherf et al.
# Submitted via: FreeRIP 2.951 
#
DISCID=b0092b0e
DTITLE=Glen Campbell - Wanted
DYEAR=1900
DGENRE=Country
TTITLE0=Rhinestone cowboy
TTITLE1=Southern nights
TTITLE2=Wichita lineman
TTITLE3=Galveston
TTITLE4=By the time I get to Phoenix
TTITLE5=Crying
TTITLE6=I'm so lonesome I could cry
TTITLE7=Try a little kindness
TTITLE8=It' only make believe
TTITLE9=Dreams of the everyday housewife
TTITLE10=Country boy ( your got your feet in L. A. )
TTITLE11=Gentle on my mind
TTITLE12=Blue grass medley
TTITLE13=Amazing grace
EXTD=
EXTT0=
EXTT1=
EXTT2=
EXTT3=
EXTT4=
EXTT5=
EXTT6=
EXTT7=
EXTT8=
EXTT9=
EXTT10=
EXTT11=
EXTT12=
EXTT13=
PLAYORDER=
